# xmcd
# Copyright (C) 1995-1998 Ti Kan
#
# Track frame offsets:
#       150
#       17098
#       35697
#       55177
#
# Disc length: 954 seconds
#
# Revision: 0
# Processed by: cddbd v1.5.2PL0 Copyright (c) Steve Scherf et al.
# Submitted via: CD-Import v1.0
#
DISCID=2c03b804
DTITLE=Death Of A Cheerleader - #2
DYEAR=09
DGENRE=
TTITLE0=The Sun Will Shine In A Different Way
TTITLE1=Tear
TTITLE2=You're About To Leave
TTITLE3=Holding A Knife
EXTD=
EXTT0=
EXTT1=
EXTT2=
EXTT3=
PLAYORDER=
